<svg width="872" height="1024" viewBox="0 0 872 1024" fill="none" xmlns="http://www.w3.org/2000/svg">
<path d="M664.156 799.065C560.629 730.373 530.702 610.655 530.702 610.655C516.954 542.458 467.886 532.157 467.886 532.157C368.288 510.561 347.189 598.394 347.189 598.394C304.01 733.807 244.628 771.593 244.628 771.593C211.267 793.672 165.15 840.285 165.15 840.285C85.6603 933.028 192.622 1006.12 192.622 1006.12C240.71 1042.92 296.15 1009.07 296.15 1009.07L375.64 963.934C457.088 921.734 535.091 984.537 535.091 984.537C557.182 1001.22 604.266 1019.37 604.266 1019.37C677.868 1044.89 726.439 956.57 726.439 956.57C771.118 861.385 664.156 799.065 664.156 799.065ZM12.4061 494.705C12.4061 494.705 42.4938 430.587 105.297 465.262C105.297 465.262 173.989 504.189 203.916 590.547C203.916 590.547 244.64 710.265 128.356 719.104C128.356 719.104 47.8865 725.972 5.68693 600.365C5.69933 600.353 -10.8259 536.248 12.4061 494.705ZM223.057 198.998C223.057 198.998 254.459 111.165 310.89 162.204C310.89 162.204 399.851 252.479 411.802 369.755C411.802 369.755 426.691 466.898 331.01 494.866C331.01 494.866 244.653 520.875 208.342 414.397C208.342 414.397 170.555 315.283 223.057 198.998ZM539.529 191.151C539.529 191.151 578.295 133.257 610.18 148.468C610.18 148.468 659.247 175.94 680.83 296.154C680.83 296.154 688.678 394.289 646.491 450.708C646.491 450.708 592.514 535.591 505.177 475.725C505.177 475.725 437.96 439.6 472.3 321.506C472.3 321.506 482.614 269.649 539.529 191.151ZM755.411 472.291C755.411 472.291 826.558 425.678 857.96 487.502C857.96 487.502 901.139 575.335 833.426 673.458C833.426 673.458 768.664 763.25 683.781 693.579C683.781 693.579 638.147 648.441 683.781 557.67C683.781 557.67 715.679 501.238 755.411 472.291Z" fill="url(#paint0_linear_849_7520)"/>
<path d="M246.267 146.013C246.267 146.013 203.721 54.2619 311.761 0C311.761 0 274.991 27.5215 294.145 88.5646C294.145 88.5646 307.707 136.033 308.104 143.62C308.104 143.62 284.624 102.127 280.211 96.1516C280.211 96.1516 261.032 72.6095 254.251 104.135L246.267 146.013V146.013ZM25.8107 453.955C25.8107 453.955 -13.0913 382.61 70.7128 333.481C70.7128 333.481 42.6707 357.469 61.1919 405.408C61.1919 405.408 74.5435 442.761 75.2501 448.823C75.2501 448.823 54.2619 416.777 50.4064 412.214C50.4064 412.214 33.8068 394.338 30.0133 419.963L25.8107 453.955V453.955ZM556.281 0.582663C556.281 0.582663 663.279 41.7037 626.597 145.43C626.597 145.43 619.84 57.6587 589.12 102.35C589.12 102.35 571.169 133.863 568.38 145.43C568.38 145.43 561.363 143.57 579.946 85.5893C579.946 85.5893 599.236 34.0547 556.281 0.582663ZM818.106 329.253C818.106 329.253 897.931 380.366 850.971 458.282C850.971 458.282 860.095 386.069 827.788 417.148C827.788 417.148 808.003 439.686 803.812 448.6C803.812 448.6 798.444 445.922 823.139 402.049C823.127 402.049 847.326 363.519 818.106 329.253V329.253Z" fill="url(#paint1_linear_849_7520)"/>
<defs>
<linearGradient id="paint0_linear_849_7520" x1="435.763" y1="145.921" x2="435.763" y2="1024" gradientUnits="userSpaceOnUse">
<stop stop-color="#BD62F9"/>
<stop offset="0.489583" stop-color="#5D9EF1"/>
<stop offset="1" stop-color="#13EBAB"/>
</linearGradient>
<linearGradient id="paint1_linear_849_7520" x1="441.281" y1="0" x2="441.281" y2="458.282" gradientUnits="userSpaceOnUse">
<stop stop-color="#BD62F9"/>
<stop offset="0.489583" stop-color="#5D9EF1"/>
<stop offset="1" stop-color="#13EBAB"/>
</linearGradient>
</defs>
</svg>
